<?xml version="1.0" encoding="UTF-8"?>
<svg id="a" data-name="Layer 1" xmlns="http://www.w3.org/2000/svg" width="429" height="429" viewBox="0 0 429 429">
  <defs>
    <style>
      .b {
        fill: #fff;
        stroke-width: 0px;
      }
    </style>
  </defs>
  <path class="b" d="M214.5,7c28.02,0,55.19,5.49,80.77,16.3,24.71,10.45,46.9,25.41,65.96,44.47s34.02,41.25,44.47,65.96c10.82,25.58,16.3,52.75,16.3,80.77s-5.49,55.19-16.3,80.77c-10.45,24.71-25.41,46.9-44.47,65.96-19.06,19.06-41.25,34.02-65.96,44.47-25.58,10.82-52.75,16.3-80.77,16.3s-55.19-5.49-80.77-16.3c-24.71-10.45-46.9-25.41-65.96-44.47-19.06-19.06-34.02-41.25-44.47-65.96-10.82-25.58-16.3-52.75-16.3-80.77s5.49-55.19,16.3-80.77c10.45-24.71,25.41-46.9,44.47-65.96s41.25-34.02,65.96-44.47c25.58-10.82,52.75-16.3,80.77-16.3M214.5,0C96.03,0,0,96.03,0,214.5s96.03,214.5,214.5,214.5,214.5-96.03,214.5-214.5S332.97,0,214.5,0h0Z"/>
</svg>