<?xml version="1.0" encoding="UTF-8"?>
<svg id="a" data-name="Layer 1" xmlns="http://www.w3.org/2000/svg" width="122.8" height="68.9" viewBox="0 0 122.8 68.9">
  <defs>
    <style>
      .b {
        fill: #fff;
        stroke-width: 0px;
      }
    </style>
  </defs>
  <path class="b" d="M108.9,2.3C110.5.7,112.6,0,114.7,0s4.2.8,5.8,2.4l.1.1c1.5,1.6,2.2,3.6,2.2,5.6s-.8,4-2.4,5.5c-17.6,17.8-35.5,35.3-53.3,52.8q-.1.1-.2.2c-1.6,1.6-3.7,2.3-5.8,2.3s-4.2-.9-5.8-2.5l-.3-.2C37.5,48.7,19.9,31.2,2.4,13.7.8,12.2,0,10.2,0,8.2s.7-4,2.2-5.6l.2-.2C3.9.9,6,.1,8.1,0c2.1,0,4.2.7,5.9,2.3l47.2,47.2L108.9,2.3h0Z"/>
</svg>