<?xml version="1.0" encoding="UTF-8"?>
<svg id="b" data-name="Layer 1" xmlns="http://www.w3.org/2000/svg" width="5261.1" height="2370.44" viewBox="0 0 5261.1 2370.44">
  <defs>
    <style>
      .c {
        stroke-width: 0px;
      }
    </style>
  </defs>
  <g>
    <path class="c" d="M5260.5,2351.53v-2c0-2.8-5-4-9.7-4s-9.7,1.3-9.7,4v2c0,1.8.7,3.6,2,4.9l5,4.9c.3.3.4.6.4,1v6.4c0,.4.2.7.6.8l2.9.9c.5.1,1-.2,1-.8v-7.2c0-.4.2-.7.4-1l5.1-5c1.3-1.3,2-3.1,2-4.9ZM5250.8,2351.42c-4.8,0-7.4-1.3-7.5-1.8h0c.1-.5,2.7-1.8,7.5-1.8s7.3,1.3,7.5,1.8c-.2.5-2.7,1.8-7.5,1.8Z"/>
    <path class="c" d="M5255.8,2361.73c-.6,0-1,.4-1,1s.4,1,1,1h4.3c.6,0,1-.4,1-1s-.4-1-1-1h-4.3Z"/>
    <path class="c" d="M5260.1,2365.12h-4.3c-.6,0-1,.4-1,1s.4,1,1,1h4.3c.6,0,1-.4,1-1s-.4-1-1-1Z"/>
    <path class="c" d="M5260.1,2368.42h-4.3c-.6,0-1,.4-1,1s.4,1,1,1h4.3c.6,0,1-.4,1-1,0-.5-.4-1-1-1Z"/>
  </g>
  <g>
    <path class="c" d="M55.1.82c-.6-.6-1.3-.8-2-.8s-1.4.3-2,.8c-1.1,1.1-1.1,2.9,0,4l3.8,3.8H19.9l3.8-3.8c1.1-1.1,1.1-2.9,0-4s-2.9-1.1-4,0l-8.6,8.6c-1.1,1.1-1.1,2.9,0,4l8.6,8.6c.6.6,1.3.8,2,.8s1.4-.3,2-.8c1.1-1.1,1.1-2.9,0-4l-3.8-3.8h35l-3.8,3.8c-1.1,1.1-1.1,2.9,0,4,1.1,1.1,2.9,1.1,4,0l8.6-8.6c1.1-1.1,1.1-2.9,0-4L55.1.82Z"/>
    <path class="c" d="M4.4.32H1.2C.5.32,0,.82,0,1.52v19.8c0,.7.5,1.2,1.2,1.2h3.2c.7,0,1.2-.5,1.2-1.2V1.52c0-.7-.6-1.2-1.2-1.2Z"/>
    <path class="c" d="M73.7.32h-3.3c-.7,0-1.2.5-1.2,1.2v19.8c0,.7.5,1.2,1.2,1.2h3.2c.7,0,1.2-.5,1.2-1.2V1.52c.1-.7-.5-1.2-1.1-1.2Z"/>
  </g>
</svg>