<?xml version="1.0" encoding="utf-8"?>
<!-- Generator: Adobe Illustrator 28.1.0, SVG Export Plug-In . SVG Version: 6.00 Build 0)  -->
<svg version="1.1" id="a" xmlns="http://www.w3.org/2000/svg" xmlns:xlink="http://www.w3.org/1999/xlink" x="0px" y="0px"
	 viewBox="0 0 408 408" style="enable-background:new 0 0 408 408;" xml:space="preserve">
<style type="text/css">
	.st0{fill:#FFFFFF;}
</style>
<path class="st0" d="M399.5,119.5c6.8,4.3,4.4,10.2,1,12c-0.3,0.1-2.1,1-2.2,1c-10.5,2-184.8-1.5-213.5,0c-27.4-7.9-7-33.8,1.5-14
	l62.2-0.2c-6.5-5.7-41.1-44.8-45.2-45.8l-76,0.5c-10.8,7.8-44.6,42.6-53,46c-11.7,4.6-41-0.1-55.2,1.8v102.5l49.2,0.2
	c1.7-1.2-4.2-23.4,9.5-20.5c8.8,1.9,2.2,19.6,6,21l41.2-0.8c0.9-17.8-1.2-49.3,0-55c1.5-7.1,12.6-7,14,0.5c1.3,6.5-1,43.2,0,62.5
	c-1.2,2.8-3.6,5.6-6.8,6.2c-5.1,1-38.4-0.7-49,0c-1.5,0.7,1.6,18.8-10,16.5c-8-1.5-4.8-15.7-6.5-16.5H19.2l-0.8,46.8l370.2,0.8
	v-67.5h-74c-2.1,1.4,0.5,26.8-1.2,31.8c-2.4,7-12.6,5.3-14-3c-0.6-3.9-0.8-75.4,1-79c0.7-1.4,4.2-3.7,5.8-3.8
	c14-0.8,4.7,32.4,8.5,40.5h74c3.1-1.4-3.6-23.3,6-24.5c10.7-1.4,8.6,13.2,8.8,19.5c0.3,11,0.9,89.1,0,93.8c-0.8,3.9-5.4,6.3-9,6.8
	c-10.2,1.4-63.1-1-80.2,0c-4,14.2-13.2,12.4-19,0c0.3,3.2,6,10.6,6.2,12.8c1.1,7.6-7.5,13.8-14,6.5c-5.5-6.1-8.9-22.4-16.2-19.2
	c3.5,5.5,22.4,30.1,9,33.5c-12.2,3-13.8-20.9-31-33.5h-70.5l32.5,34c12.3,1.8,40.5-1.1,47,0c8.9,1.5,9.2,12.9,0.5,14.5
	c-2.3,0.4-43.9,0.3-46.5,0c-16.1-1.9-41-37.1-54-48.5H16.5c-5.1,0.6-11-2.5-12-7.8c-1.6-9,1.1-154.6,1-179.8c0.9-0.9,2.9-3.6,3.8-4
	c5.5-2.8,48.7,0.4,59-1.5c10-8,41-38.9,47-43c2.3-1.5,6.9-4,9.5-4.5c3.9-0.8,73.8-1.1,78.5-0.5c4,0.5,8.7,2.2,12,4.5
	c5.6,3.8,44.4,46.5,54.5,55.5c24.9,1.4,111.8-1.9,127,0C396.9,118.5,398.8,119.3,399.5,119.5z"/>
<path class="st0" d="M216.2,171.5c34.1-2.2,47.2,46,9.8,57.8c3.7,28.9-12.9,24.2-14.5,16c-0.2-1.2-0.2-23.8,0-25
	c2-10.5,19.8-1.4,22-16.5c2.4-16.4-18.2-22.9-26-11.5c-2.4,3.5-3.4,18-13.8,12.2C183.1,198.6,197,172.7,216.2,171.5z"/>
</svg>
