<?xml version="1.0" encoding="UTF-8"?>
<svg id="b" data-name="Layer 1" xmlns="http://www.w3.org/2000/svg" width="74.81" height="22.85" viewBox="0 0 74.81 22.85">
  <defs>
    <style>
      .c {
        fill: #fff;
        stroke-width: 0px;
      }
    </style>
  </defs>
  <path class="c" d="M55.1.82c-.6-.6-1.3-.8-2-.8s-1.4.3-2,.8c-1.1,1.1-1.1,2.9,0,4l3.8,3.8H19.9l3.8-3.8c1.1-1.1,1.1-2.9,0-4s-2.9-1.1-4,0l-8.6,8.6c-1.1,1.1-1.1,2.9,0,4l8.6,8.6c.6.6,1.3.8,2,.8s1.4-.3,2-.8c1.1-1.1,1.1-2.9,0-4l-3.8-3.8h35l-3.8,3.8c-1.1,1.1-1.1,2.9,0,4,1.1,1.1,2.9,1.1,4,0l8.6-8.6c1.1-1.1,1.1-2.9,0-4L55.1.82Z"/>
  <path class="c" d="M4.4.32H1.2C.5.32,0,.82,0,1.52v19.8c0,.7.5,1.2,1.2,1.2h3.2c.7,0,1.2-.5,1.2-1.2V1.52c0-.7-.6-1.2-1.2-1.2Z"/>
  <path class="c" d="M73.7.32h-3.3c-.7,0-1.2.5-1.2,1.2v19.8c0,.7.5,1.2,1.2,1.2h3.2c.7,0,1.2-.5,1.2-1.2V1.52c.1-.7-.5-1.2-1.1-1.2Z"/>
</svg>