<?xml version="1.0" encoding="utf-8"?>
<!-- Generator: Adobe Illustrator 28.1.0, SVG Export Plug-In . SVG Version: 6.00 Build 0)  -->
<svg version="1.1" id="Layer_1" xmlns="http://www.w3.org/2000/svg" xmlns:xlink="http://www.w3.org/1999/xlink" x="0px" y="0px"
	 viewBox="0 0 417.2 489.8" style="enable-background:new 0 0 417.2 489.8;" xml:space="preserve">
<style type="text/css">
	.st0{fill:#FFFFFF;}
</style>
<path class="st0" d="M396.6,190.8c-42-87-136-131-226-115l24-45c6-10,2-23-8-28c-10-6-23-2-28,8l-49,91c0,0-11,18,6,26l91,49
	c3,2,7,3,10,3c7,0,15-4,18-11c6-10,2-23-8-28l-47-26c71-12,145,24,178,92c40,83,5,183-78,222c-40,19-85,22-127,7s-76-45-95-85
	s-22-85-7-127c4-11-2-23-13-27c-10-2-22,4-26,15c-18,53-15,109,9,159s66,88,119,107c23,8,46,12,69,12c31,0,62-7,90-21
	C402.6,418.8,446.6,293.8,396.6,190.8L396.6,190.8z"/>
</svg>
