<?xml version="1.0" encoding="UTF-8"?>
<svg id="a" data-name="Layer 1" xmlns="http://www.w3.org/2000/svg" width="139.03" height="129.93" viewBox="0 0 139.03 129.93">
  <defs>
    <style>
      .b {
        fill: #fff;
        stroke-width: 0px;
      }
    </style>
  </defs>
  <path class="b" d="M8.6,129.92c-1.37,0-2.74.05-4.1,0-2.77-.11-4.57-1.88-4.5-4.36.07-2.4,1.83-3.9,4.61-3.98,7.67-.21,15.35-.22,22.94-1.69,17.11-3.3,28.5-13.42,35.14-29.28,3.45-8.23,5.2-16.88,6.61-25.64,2.33-14.48,6.5-28.31,15.18-40.4C94.7,10.31,108.73,2.5,126.07.41c2.66-.32,5.32-.37,7.99-.41,3.13-.05,4.91,1.37,4.97,3.95.07,2.62-1.77,4.38-4.87,4.39-4.84.02-9.61.54-14.31,1.69-14.44,3.55-24.92,12.2-32.15,25.04-5.77,10.26-8.61,21.44-10.43,32.95-1.99,12.62-5.2,24.84-12.08,35.82-8.37,13.35-20.5,21.12-35.82,24.19-6.86,1.38-13.81,1.67-20.77,1.88Z"/>
</svg>