<?xml version="1.0" encoding="UTF-8"?>
<svg id="a" data-name="Layer 1" xmlns="http://www.w3.org/2000/svg" width="122.8" height="68.9" viewBox="0 0 122.8 68.9">
  <defs>
    <style>
      .b {
        fill: #fff;
        stroke-width: 0px;
      }
    </style>
  </defs>
  <path class="b" d="M108.9,66.6L61.2,19.4,14,66.6c-1.7,1.6-3.8,2.3-5.9,2.3-2.1-.1-4.2-.9-5.7-2.4l-.2-.2C.7,64.7,0,62.7,0,60.7s.8-4,2.4-5.5C19.9,37.7,37.5,20.2,55,2.7l.3-.2C56.9.9,59,0,61.1,0s4.2.7,5.8,2.3q.1.1.2.2c17.8,17.5,35.7,35,53.3,52.8,1.6,1.5,2.4,3.5,2.4,5.5s-.7,4-2.2,5.6l-.1.1c-1.6,1.6-3.7,2.4-5.8,2.4s-4.2-.7-5.8-2.3h0Z"/>
</svg>