<?xml version="1.0" encoding="UTF-8"?>
<svg id="a" data-name="Layer 1" xmlns="http://www.w3.org/2000/svg" width="60" height="45.77" viewBox="0 0 60 45.77">
  <defs>
    <style>
      .b {
        fill: #fff;
        stroke-width: 0px;
      }
    </style>
  </defs>
  <path class="b" d="m60,16.79c-.35,1.29-.96,2.42-2,3.3-2.15,1.8-5.25,1.79-7.33-.11-1.69-1.54-3.39-3.06-5.34-4.27-3.62-2.25-7.52-3.68-11.76-4.16-8.05-.91-15.27,1.12-21.64,6.14-.77.61-1.48,1.27-2.18,1.95-1.4,1.36-3.08,2.02-5.02,1.72-2.14-.34-3.57-1.65-4.41-3.62C.19,17.43.1,17.11,0,16.79c0-.7,0-1.41,0-2.11.36-1.48,1.22-2.64,2.34-3.63.76-.67,1.49-1.38,2.28-2.01C14.01,1.57,24.66-1.29,36.49.53c7.66,1.18,14.38,4.47,20.18,9.6,1.43,1.27,2.89,2.54,3.33,4.55v2.11Z"/>
  <path class="b" d="m30.01,17.22c6.22.14,11.62,2.26,16.08,6.64,1.6,1.57,2.18,3.47,1.53,5.62-.66,2.2-2.18,3.59-4.44,4.03-1.72.34-3.31-.1-4.63-1.27-1.1-.97-2.2-1.92-3.54-2.56-4.27-2.05-9.47-1.28-12.9,2-1.83,1.75-3.88,2.45-6.31,1.56-3.77-1.38-4.91-6.23-2.13-9.11,3.6-3.72,8.01-5.89,13.12-6.65,1.06-.16,2.13-.26,3.21-.24Z"/>
  <path class="b" d="m29.95,45.77c-3.12-.01-5.62-2.57-5.6-5.72.02-3.07,2.6-5.61,5.69-5.59,3.08.02,5.62,2.59,5.62,5.67,0,3.11-2.58,5.65-5.7,5.64Z"/>
</svg>