<?xml version="1.0" encoding="UTF-8"?>
<svg id="a" data-name="Layer 1" xmlns="http://www.w3.org/2000/svg" width="527" height="527" viewBox="0 0 527 527">
  <defs>
    <style>
      .b {
        fill: #000;
        stroke-width: 0px;
      }

      .c {
        fill: none;
        stroke: #000;
        stroke-miterlimit: 10;
        stroke-width: 15px;
      }
    </style>
  </defs>
  <path class="b" d="M106.45,412.24c-3.31,0-6.61.11-9.91-.02-6.7-.27-11.05-4.55-10.87-10.54.17-5.8,4.43-9.44,11.13-9.62,18.54-.5,37.11-.53,55.44-4.07,41.35-7.99,68.88-32.45,84.93-70.78,8.33-19.9,12.56-40.81,15.98-61.98,5.64-34.99,15.72-68.43,36.68-97.64,24.73-34.45,58.63-53.32,100.54-58.37,6.43-.77,12.86-.89,19.31-1,7.57-.12,11.86,3.3,12.02,9.55.16,6.33-4.27,10.6-11.77,10.62-11.71.04-23.23,1.3-34.59,4.09-34.91,8.58-60.24,29.5-77.7,60.51-13.96,24.79-20.81,51.82-25.21,79.64-4.82,30.51-12.57,60.05-29.2,86.58-20.23,32.26-49.55,51.04-86.57,58.48-16.58,3.33-33.37,4.04-50.2,4.54Z"/>
  <circle class="c" cx="263.5" cy="263.5" r="256"/>
</svg>