<?xml version="1.0" encoding="utf-8"?>
<!-- Generator: Adobe Illustrator 28.1.0, SVG Export Plug-In . SVG Version: 6.00 Build 0)  -->
<svg version="1.1" id="Layer_1" xmlns="http://www.w3.org/2000/svg" xmlns:xlink="http://www.w3.org/1999/xlink" x="0px" y="0px"
	 viewBox="0 0 120.6 122.9" style="enable-background:new 0 0 120.6 122.9;" xml:space="preserve">
<style type="text/css">
	.st0{fill:#FFFFFF;}
</style>
<g>
	<path class="st0" d="M66.6,108.9c1.6,1.6,2.3,3.7,2.3,5.8s-0.8,4.2-2.4,5.8l-0.1,0.1c-1.6,1.5-3.6,2.2-5.6,2.2c-2,0-4-0.8-5.5-2.4
		C37.5,102.8,20,84.9,2.5,67.1c-0.1-0.1-0.1-0.1-0.2-0.2C0.7,65.3,0,63.2,0,61.1c0-2.1,0.9-4.2,2.5-5.8L2.7,55
		C20.2,37.5,37.7,19.9,55.2,2.4C56.7,0.8,58.7,0,60.7,0s4,0.7,5.6,2.2l0.2,0.2C68,3.9,68.8,6,68.9,8.1c0,2.1-0.7,4.2-2.3,5.9
		L19.4,61.2L66.6,108.9L66.6,108.9z M118.4,106.9c1.5,1.6,2.3,3.7,2.3,5.8c0,2.1-0.8,4.2-2.4,5.8l-0.1,0.1c-1.6,1.5-3.6,2.2-5.6,2.2
		c-2,0-4-0.8-5.6-2.4c-17.3-17.3-35.1-34.3-52.7-51.4C54.2,67.1,54.1,67,54,67c-1.5-1.6-2.3-3.8-2.3-5.9c0-2.1,0.8-4.2,2.5-5.8
		c17.5-17,35.1-33.8,52.6-50.8l0.1-0.1c1.5-1.5,3.5-2.3,5.5-2.3s4,0.7,5.6,2.2l0.2,0.2c1.6,1.6,2.4,3.7,2.4,5.8
		c0,2.1-0.7,4.2-2.3,5.8L71.2,61.2L118.4,106.9L118.4,106.9z"/>
</g>
</svg>
