<?xml version="1.0" encoding="UTF-8"?>
<svg id="a" data-name="Layer 1" xmlns="http://www.w3.org/2000/svg" width="260.85" height="321.39" viewBox="0 0 260.85 321.39">
  <defs>
    <style>
      .b {
        fill: #fff;
        stroke-width: 0px;
      }
    </style>
  </defs>
  <path class="b" d="m253.99,20.63c3.9-.99,6.86-4.79,6.86-9.31v-1.74c0-5.31-4-9.59-8.88-9.59H8.93C4.04,0,.05,4.28.05,9.59v1.74C.05,15.89,2.96,19.65,6.91,20.63c2.68,51.65,27.54,98.94,67.63,127.93l16.78,12.13-16.78,12.13C34.4,201.82,9.54,249.15,6.86,300.75c-3.9.99-6.86,4.79-6.86,9.31v1.74c0,5.31,3.99,9.59,8.88,9.59h243.04c4.89,0,8.88-4.28,8.88-9.59v-1.74c0-4.56-2.91-8.32-6.86-9.31-2.68-51.65-27.54-98.93-67.63-127.93l-16.73-12.13,16.78-12.13c40.09-29,64.95-76.33,67.63-127.93h0Zm-105.33,132.12c-2.44,1.79-3.95,4.75-3.95,7.94s1.46,6.2,3.95,7.94l27.78,20.07c35.11,25.38,57.01,66.65,59.74,111.77H24.67c2.73-45.12,24.63-86.39,59.74-111.77l27.78-20.07c2.44-1.79,3.95-4.75,3.95-7.94s-1.46-6.2-3.95-7.94l-27.78-20.07C49.3,107.3,27.4,66.04,24.67,20.92h211.5c-2.73,45.12-24.63,86.39-59.74,111.77l-27.78,20.07h0Z"/>
  <path class="b" d="m153.6,104.76h-46.34c-3.67,0-7,2.44-8.32,6.16-1.32,3.71-.38,7.9,2.4,10.57l23.17,22.37c1.69,1.64,3.81,2.44,5.92,2.44s4.23-.8,5.92-2.44l23.17-22.37c2.73-2.63,3.71-6.86,2.4-10.57-1.32-3.71-4.65-6.16-8.32-6.16Z"/>
  <path class="b" d="m130.05,197.31l-22.51,15.6c-19.69,14.24-31.54,38.16-31.54,63.73h113.32c0-25.57-11.84-49.49-31.54-63.73l-22.51-15.6c-1.65-1.03-3.62-1.03-5.22,0h0Z"/>
</svg>