<?xml version="1.0" encoding="UTF-8"?>
<svg id="a" data-name="Layer 1" xmlns="http://www.w3.org/2000/svg" width="182.93" height="177.76" viewBox="0 0 182.93 177.76">
  <defs>
    <style>
      .b {
        fill: #fff;
        stroke-width: 0px;
      }
    </style>
  </defs>
  <path class="b" d="M91.34,177.76c-28.2,0-56.39,0-84.59,0-1.04,0-2.09-.06-3.11-.24-1.95-.33-3.11-1.58-3.47-3.48-.17-.89-.17-1.81-.17-2.72C0,116.22,0,61.13,0,6.05c0-1.04,0-2.09.33-3.09C.96,1.05,2.84-.22,4.67.03c2.08.28,3.61,1.82,3.66,3.92.16,5.91.22,11.82.09,17.74-.08,3.83.1,7.67.11,11.5,0,3.77-.06,7.54-.08,11.3-.02,3.64-.04,7.28-.04,10.92,0,4.35-.02,8.7,0,13.05.02,3.83.1,7.67.12,11.5.02,3.64,0,7.28-.01,10.92-.02,3.83-.08,7.67-.09,11.5-.02,4.29-.02,8.57,0,12.86.02,3.83,0,7.67.12,11.5.1,3.06-.1,6.1-.02,9.16.16,6.36-.11,12.73-.12,19.1-.01,3.9.22,7.8.15,11.69-.04,2.01.72,2.53,2.64,2.53,19.01-.06,38.03-.04,57.04-.04,36.27,0,72.54,0,108.81,0,1.05,0,2.09.03,3.08.38,1.68.6,2.9,2.36,2.81,4.06-.09,1.78-1.34,3.41-3.12,3.8-1.07.24-2.19.33-3.29.33-28.39.02-56.78.01-85.17.01Z"/>
  <path class="b" d="M35.78,147.72c-1.37,0-2.74.05-4.1,0-2.77-.11-4.57-1.88-4.5-4.36.07-2.4,1.83-3.9,4.61-3.98,7.67-.21,15.35-.22,22.94-1.69,17.11-3.3,28.5-13.42,35.14-29.28,3.45-8.23,5.2-16.88,6.61-25.64,2.33-14.48,6.5-28.31,15.18-40.4,10.23-14.25,24.26-22.06,41.6-24.15,2.66-.32,5.32-.37,7.99-.41,3.13-.05,4.91,1.37,4.97,3.95.07,2.62-1.77,4.38-4.87,4.39-4.84.02-9.61.54-14.31,1.69-14.44,3.55-24.92,12.2-32.15,25.04-5.77,10.26-8.61,21.44-10.43,32.95-1.99,12.62-5.2,24.84-12.08,35.82-8.37,13.35-20.5,21.12-35.82,24.19-6.86,1.38-13.81,1.67-20.77,1.88Z"/>
</svg>