<?xml version="1.0" encoding="UTF-8"?>
<svg id="a" data-name="Layer 1" xmlns="http://www.w3.org/2000/svg" width="180.21" height="180.21" viewBox="0 0 180.21 180.21">
  <defs>
    <style>
      .b {
        fill: #fff;
        stroke-width: 0px;
      }
    </style>
  </defs>
  <g>
    <path class="b" d="M145.64,177.45c-1.99-.08-3.03-1.47-3.33-2.75-.3-1.25-.01-2.93,1.7-3.88,11.24-6.25,20.67-15.5,27.29-26.77.89-1.51,2.25-1.74,2.98-1.74,1.71,0,3.56,1.22,3.62,3.47l.81,29.18c.03.97-.33,1.89-1.01,2.58-.68.7-1.58,1.08-2.55,1.08l-29.51-1.17Z"/>
    <path class="b" d="M174.28,143.8c.83,0,2.08.54,2.12,2.02l.81,29.18c.02.56-.19,1.09-.58,1.49-.39.4-.91.62-1.47.62h-.09s-29.37-1.17-29.37-1.17c-1.45-.06-1.85-1.24-1.93-1.6-.11-.45-.23-1.56.97-2.23,11.47-6.38,21.1-15.82,27.86-27.32.39-.66.96-1,1.69-1M174.28,140.8c-1.63,0-3.27.77-4.27,2.48-6.29,10.71-15.54,19.99-26.73,26.22-4.44,2.47-2.78,9.25,2.3,9.45l29.37,1.16c.07,0,.14,0,.2,0,2.83,0,5.13-2.34,5.05-5.2l-.81-29.18c-.09-3.08-2.59-4.93-5.12-4.93h0Z"/>
  </g>
  <g>
    <path class="b" d="M5.05,178.71c-.98,0-1.89-.39-2.56-1.09-.68-.7-1.03-1.63-.99-2.61l1.16-29.37c.09-2.23,1.94-3.43,3.63-3.43.75,0,2.14.23,3.01,1.8,6.25,11.24,15.5,20.67,26.77,27.29,1.68.99,1.94,2.67,1.62,3.92-.32,1.26-1.38,2.63-3.35,2.68l-29.28.81Z"/>
    <path class="b" d="M6.3,143.7c.51,0,1.22.18,1.7,1.03,6.38,11.47,15.82,21.1,27.32,27.86,1.18.69,1.04,1.81.93,2.25-.09.36-.5,1.52-1.94,1.56l-29.18.81h-.06c-.56,0-1.09-.22-1.48-.63-.39-.41-.59-.94-.57-1.51l1.16-29.37c.06-1.46,1.31-1.99,2.13-1.99M6.3,140.7c-2.51,0-5.01,1.82-5.13,4.88L0,174.95c-.11,2.88,2.19,5.26,5.05,5.26.05,0,.1,0,.14,0l29.18-.81c5.06-.14,6.82-6.83,2.45-9.4-10.71-6.29-19.99-15.54-26.22-26.73-.98-1.77-2.65-2.57-4.32-2.57h0Z"/>
  </g>
  <g>
    <path class="b" d="M6.64,37.81c-1.71,0-3.56-1.22-3.62-3.47l-.81-29.18c-.03-.97.33-1.88,1.01-2.58.68-.69,1.58-1.08,2.55-1.08l29.51,1.17c1.99.08,3.03,1.47,3.33,2.75.3,1.26.01,2.94-1.7,3.88-11.24,6.25-20.67,15.5-27.29,26.77-.89,1.51-2.25,1.74-2.98,1.74h0Z"/>
    <path class="b" d="M5.76,3h.09s29.37,1.17,29.37,1.17c1.45.06,1.85,1.24,1.93,1.6.11.45.23,1.56-.97,2.23-11.47,6.38-21.1,15.82-27.86,27.32-.39.66-.96,1-1.69,1-.83,0-2.08-.54-2.12-2.02l-.81-29.18c-.02-.56.19-1.09.58-1.49.39-.4.91-.62,1.47-.62M5.76,0C2.93,0,.63,2.34.71,5.2l.81,29.18c.09,3.08,2.59,4.93,5.12,4.93,1.63,0,3.27-.77,4.27-2.48,6.29-10.71,15.54-19.99,26.73-26.22,4.44-2.47,2.78-9.25-2.3-9.45L5.96,0c-.07,0-.14,0-.2,0h0Z"/>
  </g>
  <g>
    <path class="b" d="M173.82,38.71c-.75,0-2.14-.23-3.01-1.8-6.25-11.24-15.5-20.67-26.77-27.29-1.68-.99-1.94-2.67-1.62-3.92.33-1.26,1.38-2.63,3.36-2.68l29.28-.81c.97,0,1.88.39,2.56,1.09.68.7,1.03,1.63.99,2.61l-1.16,29.37c-.09,2.23-1.94,3.44-3.63,3.44h0Z"/>
    <path class="b" d="M175.06,3.7c.56,0,1.09.22,1.48.63.39.41.59.94.57,1.51l-1.16,29.37c-.06,1.46-1.31,1.99-2.13,1.99-.51,0-1.22-.18-1.7-1.03-6.38-11.47-15.82-21.1-27.32-27.86-1.18-.69-1.04-1.81-.93-2.25.09-.36.5-1.52,1.94-1.56l29.18-.81h.06M175.06.7s-.1,0-.14,0l-29.18.81c-5.06.14-6.82,6.83-2.45,9.4,10.71,6.29,19.99,15.54,26.22,26.73.98,1.77,2.65,2.57,4.32,2.57,2.51,0,5.01-1.82,5.13-4.88l1.16-29.37c.11-2.88-2.19-5.26-5.05-5.26h0Z"/>
  </g>
</svg>