<?xml version="1.0" encoding="UTF-8"?>
<svg id="a" data-name="Layer 1" xmlns="http://www.w3.org/2000/svg" width="86.15" height="80.52" viewBox="0 0 86.15 80.52">
  <defs>
    <style>
      .b {
        fill: #fff;
        stroke-width: 0px;
      }
    </style>
  </defs>
  <path class="b" d="M5.33,80.51c-.85,0-1.7.03-2.54,0-1.72-.07-2.83-1.17-2.79-2.7.04-1.49,1.14-2.42,2.85-2.47,4.75-.13,9.51-.14,14.21-1.04,10.6-2.05,17.66-8.32,21.77-18.15,2.14-5.1,3.22-10.46,4.1-15.89,1.45-8.97,4.03-17.54,9.4-25.03C58.68,6.39,67.38,1.55,78.12.26c1.65-.2,3.3-.23,4.95-.26,1.94-.03,3.04.85,3.08,2.45.04,1.62-1.09,2.72-3.02,2.72-3,0-5.96.33-8.87,1.05-8.95,2.2-15.45,7.56-19.92,15.51-3.58,6.36-5.34,13.29-6.46,20.42-1.24,7.82-3.22,15.4-7.49,22.2-5.19,8.27-12.7,13.09-22.2,14.99-4.25.85-8.56,1.04-12.87,1.16Z"/>
</svg>