<?xml version="1.0" encoding="UTF-8"?>
<svg id="a" data-name="Layer 1" xmlns="http://www.w3.org/2000/svg" width="249.74" height="295.1" viewBox="0 0 249.74 295.1">
  <defs>
    <style>
      .b {
        fill: #81bb01;
        stroke-width: 0px;
      }
    </style>
  </defs>
  <path class="b" d="m124.86,98.92c26.55,0,53.1.01,79.66-.03,1.41,0,1.82.28,1.82,1.77-.05,38.8-.03,77.59-.05,116.39,0,8.15-5.12,15.42-12.72,18.27-2.27.85-4.62,1.28-7.03,1.29-3.7.02-7.4.07-11.1-.03-1.44-.04-1.92.24-1.91,1.83.08,12.9.07,25.8.03,38.7-.03,8.82-6.79,16.52-15.49,17.75-11.26,1.6-21.02-6.79-21.06-18.18-.04-12.8-.04-25.6.02-38.4,0-1.4-.39-1.72-1.73-1.71-7,.07-14,.06-21,0-1.22-.01-1.59.27-1.59,1.55.05,12.75.04,25.5.03,38.25-.01,9.96-6.85,17.55-16.73,18.62-9.24,1-18.22-5.97-19.6-15.2-.2-1.34-.24-2.68-.24-4.03,0-12.5-.02-25,.04-37.5,0-1.42-.43-1.69-1.74-1.69-4.55,0-9.1.29-13.64-.15-9.57-.92-17.36-9.43-17.37-19.08-.03-39,0-77.99-.05-116.99,0-1.39.55-1.47,1.66-1.47,26.6.02,53.2.02,79.81.02Z"/>
  <path class="b" d="m36.71,152.03c0,12.45,0,24.9,0,37.35,0,6.73-2.61,12.17-8.25,15.92-11.52,7.65-26.95.18-28.3-13.62-.08-.84-.14-1.7-.14-2.54,0-24.7-.02-49.4,0-74.09,0-6.8,2.55-12.43,8.33-16.2,5.97-3.89,12.34-4.23,18.63-.86,6.52,3.49,9.68,9.21,9.72,16.56.06,12.5.02,25,.02,37.5Z"/>
  <path class="b" d="m249.74,152.04c0,12.4.02,24.8,0,37.2-.02,8.78-5.23,15.99-13.2,18.35-11.78,3.49-23.4-5.14-23.46-17.73-.13-25.2-.1-50.4-.01-75.59.03-10.21,7.34-17.94,17.52-18.46,9.49-.49,16.95,6.22,18.67,14.58.35,1.72.49,3.46.49,5.21-.01,12.15,0,24.3,0,36.45Z"/>
  <path class="b" d="m206.3,91.69c-.08-1.24-.11-2.49-.18-3.74-.74-12.19-4.57-23.36-11.14-33.61-7.31-11.39-17.08-20.15-28.95-26.59-.98-.53-1.13-.89-.55-1.87,1.74-2.97,3.37-6.01,5.04-9.02,2.35-4.24,4.71-8.47,7.04-12.72.92-1.68.35-3.35-1.26-3.95-1.4-.52-2.55.04-3.5,1.74-4.02,7.25-8.05,14.5-12.05,21.76-.4.73-.66,1.13-1.67.7-12.58-5.34-25.7-7.57-39.35-6.78-10.03.58-19.66,2.79-28.89,6.72-.98.42-1.35.24-1.82-.63-2.06-3.83-4.19-7.61-6.3-11.42-1.99-3.58-3.97-7.16-5.97-10.74-.62-1.11-1.55-1.72-2.84-1.48-1.2.22-1.92,1.02-2.14,2.22-.16.85.26,1.55.65,2.25,3.95,7.12,7.88,14.25,11.87,21.35.55.98.44,1.34-.55,1.87-8.58,4.61-16.14,10.55-22.49,17.95-11.13,12.97-17.21,27.94-17.81,45.08-.05,1.44.32,1.82,1.79,1.82,26.5-.05,53.01-.03,79.51-.03,26.5,0,53.01,0,79.51,0,.4,0,.8-.02,1.2,0,.64.03.91-.24.87-.88Zm-119.07-29c-3.73-.04-6.69-3.07-6.67-6.83.02-3.74,3.05-6.72,6.8-6.69,3.7.03,6.76,3.14,6.71,6.82-.05,3.7-3.16,6.74-6.84,6.7Zm75.26,0c-3.69.03-6.79-3.03-6.82-6.72-.03-3.69,3.03-6.78,6.73-6.8,3.74-.02,6.77,2.97,6.78,6.71.01,3.75-2.96,6.79-6.69,6.81Z"/>
</svg>