<?xml version="1.0" encoding="utf-8"?>
<!-- Generator: Adobe Illustrator 27.9.2, SVG Export Plug-In . SVG Version: 6.00 Build 0)  -->
<svg version="1.1" id="a" xmlns="http://www.w3.org/2000/svg" xmlns:xlink="http://www.w3.org/1999/xlink" x="0px" y="0px"
	 viewBox="0 0 237.1 280.3" style="enable-background:new 0 0 237.1 280.3;" xml:space="preserve">
<style type="text/css">
	.st0{fill:#FD9A0E;}
	.st1{fill:#333333;}
	.st2{fill:#DC7F10;}
	.st3{fill:#CCCCCC;}
	.st4{fill:#E1800C;}
	.st5{fill:#E4E4E4;}
	.st6{fill:#FEFEFE;}
	.st7{fill:#FD990F;}
	.st8{fill:#010201;}
	.st9{fill:#9E412B;}
	.st10{fill:#AE4F31;}
	.st11{fill:#020302;}
</style>
<path d="M165.9,20.6c5.9,9.6,9.1,20,8,31.4c-0.5,5.3-1.1,10.6-0.9,15.9c0.4,17.4,6.4,32.5,18.9,44.6c15.1,14.6,24.2,32.3,28.1,52.8
	c1.6,8.5,1.7,17.2,0.7,25.8c-0.1,1.2-0.3,2.3,0.4,3.4c5,8.2,4.5,16.4-0.2,24.5c0.1,3-2.2,4.4-4.2,5.8c-9.8,7-21.9,6.1-30.1-2.3
	c-8.2-8.4-8.9-20.3-1.9-30.1c0.4-0.5,0.9-1,1.2-1.6c3-2.8,2.1-6.4,1.7-9.8c-1.1-8-2.7-16-4.9-23.8c-5.8-21.3-14-41.5-26.1-60
	c-2-3.1-5.2-5.4-6.4-9.1c-0.2-1.1-0.1-2.2,0.5-3.1c2.4-3.4,0.9-5.9-1.7-8.3c-1.6-1.5-3.4-2.6-5-4c-1.2-1-2.6-1.9-2.2-3.9
	c4.1-4.4,6.9-9.2,6.2-15.7c-0.7-5.9-4.3-10.7-8.7-10.8c-4.2-0.1-8.1,4.2-9.3,10c-0.6,3.1,1.1,6.3-0.8,9.3c-3.8,0.2-6.8-1.1-8.8-4.4
	c-0.6-1.7-0.5-3.4-0.5-5.1c0-15.1,0-30.1,0-45.2c0-2.2-0.2-4.5,1.6-6.4c12.1-2,22.9,1.6,32.7,8.4C158.7,12.2,162.2,16.5,165.9,20.6
	L165.9,20.6z"/>
<path class="st0" d="M95.8,271.7c-5.2,7.5-12.3,9.7-21.2,7.9c-22.1-4.4-44.3-8.4-66.4-12.6c-8.8-4.5-10.6-11.4-5-19.4
	c3.9-5.6,6.1-11.6,7.2-18.3c1.1-6.7,4.9-11.4,11.5-13.3c8.9-2.6,14.8-8.4,19-16.2c0.3-0.7,0.5-1.5,0.7-2.3c1.3-3.8,3.8-6.4,7.8-7.1
	c3.9-0.7,7.1,0.8,9.4,4c3.8,5.2,6.9,10.7,10.4,16c4.8,7.3,9.3,14.8,14.3,22c3.3,6.1,7.4,11.8,11.1,17.7c2.5,3.7,4.5,7.6,4.6,12.1
	C99.2,265.8,98.8,269.2,95.8,271.7L95.8,271.7z"/>
<path class="st1" d="M82.6,233.2c-7.5-11.7-15.1-23.3-22.6-35c-0.8-1.2-1.5-2.5-2.5-3.6c-3.7-4.5-9.8-4.4-13.3,0.2
	c-1.2,1.6-2.2,3.3-3.3,4.9c-2.4-19.9-0.6-39.2,8.6-57.4c3.9-7.8,8.8-14.8,14.6-21.2c14.4-15.8,20.5-34.2,17.3-55.4
	c-1.1-7.3-2.8-14.5-2.4-22.1c1.2-21.8,21.2-42.3,42.4-43.1c0,19.2,0,38.4,0,57.5c-1.2,1.5-3.1,1-4.6,1.7c-2,0.2-3.8,1.5-5.9,0.8
	c-1-1.3-0.5-2.8-0.4-4.2c0.2-3.6-0.8-6.8-2.7-9.8c-3.6-5.7-9.9-5.7-13.6-0.1c-4.1,6.3-3.4,14.4,1.8,19.8c0.8,0.9,1.9,1.5,2.4,2.6
	c0.5,1.5-0.5,2.5-1.3,3.5c-0.7,0.8-1.5,1.5-2.2,2.3c-6.1,6.3-6,7.5,0.3,13.3c1,0.9,2,1.8,1.9,3.3c-0.2,1.2-0.9,2.2-1.6,3.2
	c-18.5,26.4-28.4,56-33.3,87.6c-0.5,3.6,0.4,6.5,2.9,9.1c9.6,9.9,19.3,19.4,31.9,25.5c6.4,3.1,6.8,9,1.1,13.2
	C93.6,233.2,88.5,235.3,82.6,233.2L82.6,233.2z"/>
<path class="st2" d="M186.9,191.5c-7.3,10.4-7.5,20.5-0.6,28.8c8.1,9.7,22.8,10.4,31.8,1.5c0.9-0.9,1.8-1.9,2.8-2.9
	c3.4,2.7,5.3,6.2,5.9,10.5c0.9,6.7,3.4,12.7,7.2,18.3c6.2,8.9,2.8,17.5-7.9,19.6c-21.7,4.3-43.5,8.4-65.3,12.5
	c-9.3,1.8-16-1.9-20.5-10c-3.8-3.7-2.7-8.1-1.7-12.5c2.2-5.6,5.9-10.4,9.1-15.4c9.6-15.2,19.3-30.4,29.1-45.6
	c1.4-2.1,2.8-4.2,5.3-5.2C183.7,190.6,185.4,189.7,186.9,191.5L186.9,191.5z"/>
<path class="st1" d="M95.8,271.7c3.8-7.6,2.1-14.6-2.3-21.3c1.4-1.1,2.8-0.3,4.1,0.3c6.3,3.2,13.1,4.9,20,6c1.5,0.6,3.2,0.5,4.3,2
	c1.1,3.1,1.6,6.2-0.6,9.2C112.7,267.9,104.1,268.8,95.8,271.7L95.8,271.7z"/>
<path d="M121.4,267.8c0-3.1,0-6.2,0-9.3c0.1-0.1,0.1-0.3,0.2-0.3c6-1.7,12-2.7,18.3-1.4c-1,4.4-1.2,8.7,0.4,13
	C134.1,268.7,127.8,267.9,121.4,267.8L121.4,267.8z"/>
<path class="st3" d="M139.9,256.8c-6.1,1.2-12.3,1.8-18.5,1.7c-1.3-0.4-2.9,0.1-4.1-0.8c2.3-2.2,2.5-5,2.5-8
	c-0.1-46.4,0-92.8,0-139.2c0-2.4-0.2-4.8,0.4-7.1c0.6-2,2.1-2.9,4-3.4c8.4-2.1,16-6,22.8-11.4c1-0.8,2.1-1.7,3.6-1.1
	c18.9,22.7,28.6,49.6,35.5,77.7c1.7,6.9,2.8,14,3.4,21.1c0.2,2.5-0.5,4.1-2.6,5.2c-4-0.4-6.5,1.6-8.5,4.8
	C165.6,216.4,152.8,236.6,139.9,256.8L139.9,256.8z"/>
<path class="st4" d="M150.5,87.4c-8.6,7.2-18.2,12.1-29.1,14.6c-0.2-0.1-0.3-0.3-0.5-0.4c-0.8-1.4-0.8-2.8,0-4.3
	c1.1-1.4,2.8-1.3,4.3-1.6c7.5-1.3,13.7-4.8,18.6-10.5c0.6-0.6,1.7-1.3,0.8-2.3c-0.8-0.8-1.7-0.1-2.4,0.5c-1.1,0.9-2.1,2-3.2,3
	c-3.9,3.7-8.5,5.7-13.7,6.6c-1.9,0.3-3.8,0.5-4.8-1.6c-1.2-5.1-0.4-10.3-0.6-15.4c-0.1-3-0.2-6.1,0-9.1c0.2-3.4-0.3-6.3-3.5-8.1
	c1.6-1,3.3-0.5,5-0.7c2.6,1,5.2,2.1,7.8,3.1c2.4-0.3,4,1.6,6,2.4c1.7,1,3.3,2.1,4.9,3.2c0.8,0.7,1.7,1.3,1.9,2.5
	c2.2,1.8,4.5,3.6,6.7,5.4C154.6,79.7,154.8,81.2,150.5,87.4L150.5,87.4z"/>
<path class="st5" d="M142,69.3c-0.9-0.3-1.7-0.7-2.2-1.6c-0.1-1.5,1-2.4,1.6-3.6c2-3.5,1.9-7.1,0.4-10.7c-0.5-1.2-1.4-2.4-2.9-2.3
	c-1.5,0-2.3,1.2-2.8,2.5c-0.9,2.1-1,4.4-0.9,6.6c0.1,1.4,0.7,2.9-0.4,4.2c-2.1-0.7-3.9-2-5.7-3.3c-1.2-5.3-1.3-10.5,1.8-15.3
	c4.3-6.7,11.9-6.7,16.1,0.1C152,53.7,149.7,64.1,142,69.3L142,69.3z"/>
<path class="st6" d="M121.4,102c0,50.3,0,100.6,0.1,150.9c0,3.2-0.6,5.1-4.2,4.7c-8.5-0.6-16.2-3.8-23.8-7.3
	c-3.9-5.5-7.6-11.2-10.9-17.1c5.4,0,10.6-1.1,15-4.4c5.1-3.9,4.8-8.3-1-11c-14.1-6.6-24.5-17.6-34.8-28.6c-2.1-2.3-1-4.8-0.7-7.2
	c2.3-18.1,7.3-35.5,14.1-52.4c5.5-13.8,12.2-27,21.6-38.7c1.6-0.8,2.8,0.2,4,1.1c5.4,3.8,11.3,6.5,17.7,8.1c1.2,0.3,2.2,0.9,3,1.8
	L121.4,102L121.4,102z"/>
<path class="st7" d="M121.4,101.8c-9.4-1.1-17-6.1-24.7-11c-2.2-2.1-4.4-4.2-6.5-6.4c-1.9-2-2.1-4,0.1-6.2c2.8-2.8,5.3-5.9,8-8.8
	c0-1,0.5-1.8,1.2-2.4c2.1-1.7,4.1-3.6,6.2-5.2c1.8-0.5,3.4-2,5.5-1.5c1.8-0.4,3.3-1.6,5.3-1.4c3.8-0.4,5.2,1,5.1,5.1
	c-0.4,9.5-0.1,19-0.2,28.5c-0.1,0.2-0.2,0.3-0.3,0.5c-1.9,1.2-3.8,0.7-5.8,0.3c-6-1.2-11.1-4.3-15.8-7.9c-0.7-0.6-1.4-1.3-2.2-1.8
	c-0.8-0.5-1.7-1.3-2.4-0.4c-0.8,1,0.4,1.7,1,2.2c6.5,5.3,13.5,9.8,22.2,10.7c1.1,0.1,2.1,0.2,3,0.9c0.1,0.2,0.2,0.3,0.3,0.5
	C121.3,98.8,121.4,100.3,121.4,101.8L121.4,101.8z"/>
<path class="st5" d="M99.9,67.7c-0.3,0.8-0.9,1.3-1.7,1.6c-7.7-3.2-10.5-15.7-5-23.8c4.3-6.3,11.4-6.2,15.6,0.2
	c2.9,4.5,3.4,9.4,2.2,14.5c-1.8,1-3.4,2.3-5.5,2.8c-1.3-2.3-0.4-5-1.1-7.4c-0.6-1.9-1.1-4.2-3.5-4.2c-2.5,0-3,2.3-3.5,4.2
	c-0.7,2.9-0.4,5.8,0.9,8.5C99,65.3,99.9,66.3,99.9,67.7L99.9,67.7z"/>
<path class="st8" d="M134.9,64.5c-1.4-4.3-1.7-8.6,0.6-12.6c1.8-3.2,4.5-3.4,6.7-0.7c3.7,4.6,2.6,13.1-2.3,16.6
	C138.2,66.7,136.5,65.6,134.9,64.5L134.9,64.5z"/>
<path class="st9" d="M121.3,92.3c6.6-0.2,12.4-2.5,17.2-7c1.4-1.3,2.6-2.6,3.9-3.9c1.7-1.7,2.9-0.2,4.1,0.7c1.6,1.2,0.2,2-0.5,2.8
	c-6.6,7.5-14.5,12.2-24.7,12.4l0.1-0.2c-1.3-1.6-1.4-3.1,0-4.7L121.3,92.3L121.3,92.3z"/>
<path class="st10" d="M121.4,92.5c0,1.6,0,3.1,0,4.7c-11.3,0.5-19.8-5.5-28-12.4c-1-0.8-1.7-1.6-0.4-2.9c1.2-1.2,2.2-1.9,3.7-0.6
	c2.4,1.9,4.7,3.9,7.2,5.6C109.2,90.4,114.9,92.6,121.4,92.5L121.4,92.5z"/>
<path class="st11" d="M99.9,67.7c-4.4-3.8-5.6-11.5-2.4-16.2c2.1-3.1,5-3,6.9,0.2c2.1,3.5,2.1,7.3,1.1,11.2
	C104.1,64.9,101.9,66.2,99.9,67.7L99.9,67.7z"/>
</svg>
