<?xml version="1.0" encoding="UTF-8"?>
<svg id="a" xmlns="http://www.w3.org/2000/svg" width="251.0854" height="252.758" xmlns:xlink="http://www.w3.org/1999/xlink" viewBox="0 0 251.0854 252.758">
  <defs>
    <style>
      .d {
        fill: #dde2e8;
      }

      .e {
        fill: #1872c7;
      }

      .f {
        fill: #292a2a;
      }

      .g {
        fill: #1756b9;
      }

      .h {
        fill: #178bc7;
      }

      .i {
        fill: #f6f5f2;
      }

      .j {
        fill: #828c90;
      }

      .k {
        fill: #93979c;
      }

      .l {
        fill: #b7bdc3;
      }

      .m {
        fill: #125893;
      }

      .n {
        fill: url(#c);
      }

      .o {
        fill: #090909;
      }

      .p {
        fill: #16a2cc;
      }

      .q {
        fill: #060606;
      }

      .r {
        fill: #929698;
      }

      .s {
        fill: #1d6bf0;
      }

      .t {
        fill: #1c89f4;
      }

      .u {
        fill: #282828;
      }

      .v {
        fill: #6f7478;
      }

      .w {
        fill: #f2f2f3;
      }

      .x {
        fill: #878b8c;
      }

      .y {
        fill: #2b2b2b;
      }

      .z {
        fill: #474747;
      }

      .aa {
        fill: #919191;
      }

      .ab {
        fill: #868c90;
      }

      .ac {
        fill: url(#b);
      }

      .ad {
        fill: #464646;
      }

      .ae {
        fill: #717475;
      }

      .af {
        fill: #979d9f;
      }

      .ag {
        fill: #1ac3fa;
      }

      .ah {
        fill: #080909;
      }
    </style>
    <linearGradient id="b" x1="2058.8291" y1="-676.3901" x2="1731.8489" y2="-1430.5572" gradientTransform="translate(-396.3669 -194.345) scale(.3042 -.3042)" gradientUnits="userSpaceOnUse">
      <stop offset="0" stop-color="#f3f4f4"/>
      <stop offset="1" stop-color="#d1dae4"/>
    </linearGradient>
    <linearGradient id="c" x1="1550.3451" y1="-638.1782" x2="1540.5448" y2="-1459.1198" gradientTransform="translate(-396.3669 -194.345) scale(.3042 -.3042)" gradientUnits="userSpaceOnUse">
      <stop offset="0" stop-color="#1ad1fc"/>
      <stop offset="1" stop-color="#1d69f0"/>
    </linearGradient>
  </defs>
  <path class="ac" d="M163.6679.0421c8.4716.0947,17.09.1961,25.8553.3042,36.6027.7049,60.0902,19.2318,61.1401,57.1858.2323,2.0143.3144,4.0876,0,6.0836.3575,18.3435.2477,36.7114,0,55.0565.4948,24.9445.4948,49.8873,0,74.8282-.3385,12.4699-3.1272,25.3176-10.9505,35.2848-8.2208,12.0447-20.3965,18.5435-34.5228,20.9335-3.9222.6636-9.2849,1.4399-13.1955,1.2313-.562-.03-1.0771-.2943-1.5588-.568-14.2404.187-28.2327.187-41.9768,0-.0863.2656-.188.2617-.3042,0l-.8768-1.405c-5.0765-14.6448-7.9609-30.0516-10.5041-45.3095l.1263-1.65.866-.4604c9.1009-.9281,17.8704-3.5343,26.5101-6.2315,1.7734-1.0877,3.664-2.0329,5.6721-2.8353,5.1662-2.5454,9.9423-5.6284,14.708-8.7235l.2524-.5976c3.6861-3.0099,7.2091-6.2698,10.0434-10.1139l.6547-.239c-.5757-.7698.3002-1.8866,1.2167-1.8251-.3662-.8129-.3164-1.3026.6084-1.5209-1.1709-3.6028-4.0119-6.0944-7.2008-2.7105-9.1616,12.7686-23.9367,20.5524-39.1032,24.528-4.1161,1.079-9.5607,2.4238-13.7483,2.6221-.5913.028-1.1597-.1809-1.6962-.4094-1.8489-6.7649-1.5385-14.0402-1.2167-20.9884v-17.3382l-.2888-.2476c.1939-2.7154.1756-5.3742-.0549-7.9766l.3437-.2928c-.4241-.3952-.8827-.7518-1.3758-1.0698-10.9748-.3901-21.8723-.3376-32.6923.1573-.2704.2604-.5746.0576-.9125-.6084-.92.2872-1.7116-.6418-1.2167-1.5209.2706-1.2282.1715-2.5167-.2974-3.8655-.1784-4.2523.0399-8.5191.2695-12.8313.0193-.3622-.096-.7315-.2497-1.1029.1736-.3569.3134-.7157.3345-1.0814,1.7141-29.5969,8.8147-58.4349,17.8896-86.6693-.4652-.4677-.3487-.8201.3042-.9125l5.1711-14.9048.1623-1.7339c2.0484-6.7534,4.6988-13.6033,7.2265-20.0421.0795-.2026.3096-.3212.5198-.429,11.3509-.0232,22.7171-.0007,34.0681,0v-.0003Z"/>
  <path class="n" d="M127.1663.0421l.7643.3047c-6.58,16.463-12.6985,34.3705-17.7983,50.7975-7.0882,25.8107-12.9109,52.9767-13.9923,79.3909l.3936.2469c-.0328,2.5286-.0295,5.0715.0098,7.6287.795,9.6908,4.7702,10.0805,13.5604,10.2565,5.1677.1035,11.0735-.0227,16.2224-.3728.0364-.0025-.0101-.454-.0725-.7252l.3545-.154c-7.7622.2202-15.4849.1701-23.1679-.1502-.8243,1.4388-5.5005-.6506-3.9543-2.1293.3136.1649.5974.4652.9125.6084.7508-.2222,2.377-.3735,2.4334.6084,9.9105.099,19.8303.0465,29.7594-.1575l.9627.4617c.0142-.8726.6896-.8088.9125,0,.6005,2.1697.0124,5.9871,0,8.517v17.3382c.1426,7.0154.5881,14.0075,1.2167,20.9884-.2424.1838-.4903.3567-.7574.4913-.2624.1323-.5186.2551-.7834.2854-28.7684,3.2963-64.6459-3.0501-82.6724-27.4155-3.0293-3.1604-6.0658-.4442-7.0407,2.9127.9226.0005.9607.7628.6084,1.5209.8351-.2386,1.4156,1.0531,1.3631,1.7423l.4619.6911.3869.0051c3.0137,4.2584,7.1536,7.6971,11.2294,10.9138l.2467.64.8951.1991c6.4098,4.6027,13.5281,8.0912,20.9392,10.7606l.675.5992,1.1131.0278c16.766,5.5824,34.7153,6.7388,52.2373,5.1498l1.0977.2977c.5174,1.1401,1.0233,2.3003,1.2814,3.5306,1.3977,6.6636,2.7351,13.3672,4.0406,20.0507-.1396,1.8452.1264,3.7686.798,5.7701,1.5963,5.8584,3.1406,11.7156,4.6329,17.5716l-.1066,1.1373c-28.1799.274-57.775.4124-86.0828,0-.5032.299-1.0411.5858-1.6333.6337-3.3932.2743-7.8773-.3198-11.2791-.8757-14.4945-2.3687-27.7213-9.6598-36.0605-21.9631C2.6179,216.9046.8784,202.7979.6274,188.9377c-.1336-11.7378-.235-23.2966-.3042-34.6765-.0011-30.824-.9057-62.5333.3167-93.2185.6423-16.1236,2.4483-28.841,13.215-41.5373C26.6675,4.3967,42.9455.7188,62.0716.3463L89.1436.0421c12.6664-.1079,25.355.0294,38.0224,0h.0002Z"/>
  <path class="aa" d="M60.2468,250.3818c28.2678.185,56.962.2864,86.0828.3042.081-.8444,1.4467-1.1021,1.8251-.3042h.3042c14.2042.2078,28.1965.2078,41.9768,0,20.3815-.417,36.3493-5.1261,49.2771-21.5967-6.7136,11.0316-18.7776,18.6339-31.2737,21.5014-7.5281,1.7275-15.067,1.7577-22.7056,2.2371-40.6972-.7611-81.6471,1.1138-122.2802-.3293-5.9762-.2122-11.314-.2328-17.255-1.3-14.2289-2.5558-27.3468-10.2973-34.9243-22.7177,11.8508,15.4331,29.5673,22.7251,48.9729,22.2051h-.0001Z"/>
  <path class="i" d="M129.5998.0421c.1152.6349-.1332,1.0785-.3443,1.6305-2.6189,6.8501-5.2198,13.6242-7.5644,20.5746l-5.1711,14.9048c-.1007.3032-.2028.6054-.3042.9125-9.2139,28.4989-16.4439,58.5593-17.9789,87.9391-.3251.4722-.5771.1307-.8802-.3354l-.3613-1.1754c.1494-3.9178.574-7.7846,1.2739-11.6002-.242-1.1173-.2955-2.2428-.167-3.3774,2.2706-20.0609,6.524-40.4829,12.9426-59.5878.0067-1.5104.4054-2.9239.8589-4.3482,4.4844-14.0848,9.3411-27.8463,14.65-41.6407.5338-1.387,1.3284-2.6537,2.1335-3.8966.3042-.0007.6084.0006.9125,0v.0002Z"/>
  <path class="p" d="M128.6871.0421c-6.3687,16.41-12.5465,33.019-17.6424,49.8854-.2575.5988-.5616,1.0044-.9125,1.2167-.5864-.2701-.1297-.9737-.0087-1.3749.6878-2.281,1.5137-4.8596,2.114-6.7682,4.4268-14.0746,9.1573-28.1551,14.7842-41.7556.1731-.4185.5559-.7228.1446-1.2035.5069-.0012,1.014.0011,1.5209,0h-.0001Z"/>
  <path class="d" d="M250.6631,193.5002c.6704-24.6994.0297-50.0598,0-74.8282.0863-.2656.188-.2617.3042,0,.0003,24.3732.262,48.7858.0053,73.1595-.0054.5146.1941,1.3533-.3095,1.6686h0Z"/>
  <path class="w" d="M250.9673,118.6721h-.3042c-.022-18.3414.207-36.7179,0-55.0565.0863-.2656.188-.2617.3042,0,.0207,18.3468-.0002,36.7097,0,55.0565Z"/>
  <path class="t" d="M.6276,188.9376c-.5044-.3161-.3031-1.1539-.3095-1.6686-.1362-10.9944.0057-22.015.0053-33.0078.5037.3159.3041,1.1544.3095,1.6686.1155,10.9969-.2043,22.0172-.0053,33.0078Z"/>
  <path class="ag" d="M89.1439.0421c-8.8966.0758-18.097.1294-27.072.3042L89.1439.0421Z"/>
  <path class="w" d="M189.5231.3462c-8.052-.1551-16.1292.105-24.1866.0053-.5145-.0064-1.3523.195-1.6686-.3095,8.055.0005,16.1291-.09,24.1866-.0053.5144.0054,1.3529-.1942,1.6686.3095Z"/>
  <path class="d" d="M250.9673,63.6156h-.3042c-.0228-2.0218.0559-4.0634,0-6.0836.5619,1.8325.302,4.1361.3042,6.0836Z"/>
  <path class="z" d="M45.0378,171.2951c.1319-3.19,4.8933-4.6799,6.7892-1.5383,3.6049,4.7508,7.6349,8.7765,12.8448,12.3578,28.4535,19.5592,78.6144,19.8145,108.1513,2.471,7.6355-4.4834,13.1236-10.0564,18.8631-16.5902,1.5152-1.262,5.5765.9782,5.1371,2.9955-.2795.5767-.8381,1.2592-1.2167,1.8251l-.6231.1649c-3.0013,3.9433-6.6913,7.9464-10.9357,10.4814-2.4062,2.6259-6.0432,4.6911-9.2466,6.4976-3.5516,2.0029-7.522,4.1424-11.4377,5.0612-3.5175,1.9658-7.7867,3.0474-11.7582,4.0247-18.2936,4.5014-38.7794,4.869-57.2296,1.0681-4.3157-.8891-8.9933-1.8756-12.8365-3.876-4.2056-.8276-8.528-2.927-12.4051-4.9417-3.622-1.8822-7.67-4.0161-10.4084-6.9213-.2362.0778-.4455.1193-.5606.0339-4.0817-3.029-8.9091-7.3501-11.5199-11.6826-.0304-.0505.7028.8455.2175,1.0025-.8246-.4925-1.4278-1.5673-1.8251-2.4334l.0002-.0002Z"/>
  <path class="q" d="M197.4318,169.4701l-.5822.3175c-2.3185-2.7417-4.3662-3.1137-6.1431-1.116-15.9868,21.2485-44.2072,28.3222-69.9428,28.347-24.8918.0239-53.7201-6.742-69.0363-27.4566-2.8125-2.9057-3.6887-2.1871-6.591.4326l-.7069-.2202c-.3504-3.1657,2.6275-5.6511,5.6982-4.6323,1.9152.6354,3.4291,3.7426,4.7917,5.245,19.5357,21.5412,53.1071,26.2378,80.764,23.1133,18.8937-2.1345,37.916-8.797,50.9544-23.1133,1.4066-1.5445,3.3522-5.1181,5.3088-5.6392,3.0073-.8009,5.8258,1.6466,5.4853,4.7224v-.0002Z"/>
  <path class="u" d="M44.4295,169.7742l3.3329-2.5991c3.306-.9881,5.8807,4.1787,7.7653,6.2536,25.0125,27.5392,84.2308,28.8795,115.1428,11.7131,6.684-3.7118,12.0939-8.1869,17.1833-13.843,1.612-1.7914,3.1976-5.3392,6.245-4.4279l3.3329,2.5991c-.0654.591-.3628,1.0141-.6084,1.5209-.9774-1.5063-2.8254-3.4445-4.7899-2.5063-3.2274,3.0654-5.8487,6.7026-9.198,9.6589-30.0496,26.5239-97.7682,26.5859-126.5117-2.1649-1.3782-1.3785-5.2992-6.6961-6.4959-7.1899-2.0827-.8593-3.732.932-4.79,2.5064-.2359-.5142-.5416-.9175-.6084-1.5209h.0001Z"/>
  <path class="z" d="M181.0061,96.467c-.1509.2951-.6761.9861-.9125,1.2167-1.0322.4357-2.2173.8016-3.5555,1.0976-1.4184-.2435-2.6667-.6094-3.7448-1.0976-.2364-.2305-.7616-.9216-.9125-1.2167.613-4.618.736-9.3734.3691-14.266-1.119-9.3301,9.5672-9.4374,8.3638.0234l-.138,10.5671c.2071,1.2384.3839,2.4636.5305,3.6756h0Z"/>
  <path class="e" d="M98.2693,112.8927c-.4353,4.2146-.7689,8.5411-.9125,12.7755.2704.0564.2594.1596,0,.3042.4335,1.2348.4977,2.7512,0,3.9543-.1078,1.7266-.2091,3.4503-.3042,5.1711.76.548.7572.9718,0,1.5209.5702.4842.4631,1.8547,0,2.4334.8869.7861,1.4929,3.4008,1.2167,4.5627.2676.4976.8304,1.0332,1.2167,1.5209.0736.0929.0669.4916.2864.7658.9499,1.1861,2.3062,1.1536,3.6679,1.3634,7.6135.2371,15.218.3385,22.8135.3042,1.8869,1.0621,6.9177-.953,7.5393,1.7382.6857,2.9686-.3475,8.5021-.3724,11.7978-.0473,6.249.6928,12.6379.4376,18.8622-.0152.3702.2296,1.1313-.301,1.06l-.3104-19.1602-.6067,1.6705c-.1677-1.7412.1458-3.5079.193-5.2202.0132-.4796-.2115-.9453-.2004-1.4544.0551-2.5382,1.7344-7.3411-1.9613-7.7799-7.1631-.8505-25.5349,1.7551-30.7876-1.4555-4.6306-2.8303-3.9852-12.26-3.7437-17.0926-.0446-5.6459.4391-11.3053,1.2237-16.8955.1384-.986.49-2.2264.9055-.7469h-.0001Z"/>
  <path class="w" d="M98.2693,143.6148c-.8294-1.5422-1.0795-2.829-1.2167-4.5627.4615-.6705.501-1.6602,0-2.4334-.0147-.5055-.0004-1.0149,0-1.5209.0935-1.0449.1949-2.0588.3042-3.0418.42-2.0918.42-4.1196,0-6.0836.0032-.1013-.0034-.2029,0-.3042.9117.1781.5445-.4413.6505-1.0068.5064-2.7015.3172-5.5449.5693-8.2676,2.4983-26.9879,9.2006-52.7579,17.6393-78.3293-2.4258,8.8081-5.3199,17.4722-7.5806,26.3354-5.738,22.4953-11.1596,51.9491-10.0735,75.1202.0535,1.141,1.3362,3.9631-.2925,4.0947h0Z"/>
  <path class="af" d="M163.3637,195.0211c.6697-.1643.9739-.0629.9125.3042-9.099,3.6184-17.6295,5.559-27.3762,6.6919-.1734.8482-.788,1.1143-1.2167.3042-17.9978,1.8677-37.3821.5263-54.4481-5.4752-.7416-.425-.5098-.7729.3042-.6084,24.0094,8.4565,58.0674,7.9772,81.8243-1.2167h0Z"/>
  <path class="g" d="M136.9,202.0173c2.8059,16.3285,6.1361,32.6102,11.2546,48.3645-.2118,0-1.0682.3042-1.8251.3042-.2656-.0863-.2617-.188,0-.3042-2.0658-7.5388-4.5205-15.0582-6.0254-22.7475-.1182-.6041.2728-1.1774.1759-1.6649-1.5672-7.8839-3.3293-15.7443-4.7967-23.648.2707-.0281.7263-.2472,1.2167-.3042h0Z"/>
  <path class="y" d="M171.2723,94.6419l.2093-.5501c-.06-5.4231.0573-11.1673.3521-17.2326,2.0529-3.7764,7.3085-4.0211,9.2291-.004.2832,5.9978.3951,11.7484.3357,17.2519l.2159.5348c-.0648.5704-.3452,1.3102-.6084,1.8251-.3236-.6582-.8321-1.5543-.9269-2.267-.5511-4.1425,1.0392-13.6018-.7718-16.8707-1.3578-2.451-5.3664-1.7614-6.1325.8123-1.2996,4.3657.2498,11.4189-.3674,16.0584-.0948.7127-.6033,1.6087-.9269,2.267-.2632-.5148-.5436-1.2547-.6084-1.8251h.0002Z"/>
  <path class="o" d="M181.6145,94.6419c-.9213.1696-.5853-.4649-.6084-1.0508-.2072-5.2426.208-10.5233-.0638-15.7672-1.8867-4.5301-6.9771-4.2615-8.9974.0002-.2485,5.2468.1113,10.5204-.064,15.767-.0196.5859.3099,1.2206-.6084,1.0508-.6416-5.6512.4175-12.5452.073-18.3298,1.5638-5.562,8.6302-5.5652,10.196,0-.3445,5.7847.7146,12.6786.073,18.3298Z"/>
  <path class="l" d="M134.4665,146.6566h-.9125l-.9442-.3256c-9.884-.1186-19.81-.1115-29.778.0214-.8871-.152-1.5805-.2208-2.4334-.6084.3976-.6166,1.0295-.584,1.6604-.6225,10.1227-.6175,20.863.5019,31.0529,0,1.373.183,1.0819.5488,1.3549,1.535h-.0001Z"/>
  <path class="x" d="M184.6562,183.7665c-6.4766,5.1212-12.7065,8.5073-20.38,11.5588l-.9125-.3042c6.6185-2.5614,15.1153-7.171,20.6842-11.5588.5074-.2457.7781-.3252.6084.3042h0Z"/>
  <path class="d" d="M135.6793,146.6569c.0796.0874.6347,1.9832.6468,2.2743.0347.8387-.3372,1.6068-.3509,2.4275-.232,13.8495-.1293,27.778,1.2259,41.5317-.4961-.0573-.5577-1.2835-.6033-1.6737-.565-4.8357-.3296-9.7779-.927-14.5859-.6561-9.1541.6982-19.019.2847-28.0144-.0281-.6122-.7226-1.0299-.8685-1.5185-.1773-.5941.4846-.5592.5923-.441h0Z"/>
  <path class="d" d="M148.4589,250.3818c.7664-.0462,1.001.3442.7874-.6316-.0903-.4125-1.5586-3.9244-.9395-3.9342l1.5547,4.5842c13.5153-.2402,27.0644.2579,40.5741-.0184-.3158.5043-1.1537.3031-1.6686.3095-13.4265.1666-26.9878-.3098-40.3081-.3095Z"/>
  <path class="ae" d="M195.6067,172.816c-2.8778,4.3008-6.9301,7.7715-10.9505,10.9505l-.6084-.3042c2.8444-2.2411,5.7329-5.1032,8.2209-7.7486.8839-.9398,1.695-2.2892,2.574-3.2063.5969-.6228.3884-.0207.764.3086h0Z"/>
  <path class="w" d="M116.52,37.152c1.6533-4.9769,2.8881-10.1562,5.1711-14.9048-1.6702,4.9514-2.9346,10.1448-5.1711,14.9048Z"/>
  <path class="r" d="M172.7933,97.6837c.4257-1.1839,1.2701.2458,2.1198.4654.8493.2194,1.973.2513,2.8303.0725.9498-.1981,1.9241-1.7141,2.3502-.5379-2.1138,2.0617-5.192,2.0557-7.3003,0h0Z"/>
  <path class="e" d="M134.4665,172.5119v-17.3382c-.0282,5.7639-.1171,11.5771,0,17.3382Z"/>
  <path class="ad" d="M70.2847,96.467c-.3254.5765-.6044.588-.9125.9125-2.0524,1.4859-5.3348,2.2872-7.174-.2414-.0289-.0398.4854-.0482-.1263.2414-.3083-.3246-.5871-.3361-.9125-.9125.1453-1.0923.3216-2.2325.529-3.4207l-.1636-10.7845c-1.1639-9.5478,9.5582-9.5461,8.398.0008l-.1794,10.5395c.178,1.28.3585,2.5016.5413,3.6649h0Z"/>
  <path class="h" d="M111.0447,49.9275c-6.1049,20.2062-10.6102,41.9993-12.7755,62.9652-.3227-.8138-.5668.6724-.579.7892-.563,5.3749-1.2871,11.5862-1.5502,16.8533-.1142-3.1227-.3756-6.1726-.019-9.2943,2.6301-23.0235,6.5399-47.7297,14.0113-70.0966.1337-.4002.696-.9195.6121-1.5202l.3004.3035h-.0001Z"/>
  <path class="f" d="M60.551,94.6419c.5731-.4557.2913-.0488.2891-.0801-.3559-5.1848-.1704-11.5223.1115-16.7914.2653-4.9593,9.0439-5.1834,9.5408-.0016.1485,5.533.1863,11.0613.1132,16.5848l.2875.2883c-.0605.5365-.3423,1.3538-.6084,1.8251-.3236-.6582-.832-1.5543-.9269-2.267-.5355-4.0253.9926-13.3747-.5295-16.5046-1.2729-2.6176-4.942-2.6113-6.2127,0-1.5218,3.1273.0057,12.4809-.5295,16.5046-.0948.7127-.6033,1.6088-.9269,2.267-.266-.4713-.5478-1.2886-.6084-1.8251h.0002Z"/>
  <path class="ah" d="M70.8931,94.6419c-.8285.5431-.5724.2946-.6085-.4517-.2628-5.4339.2494-10.9286-.0638-16.3663-1.7659-4.4254-7.2321-4.4249-8.9976,0-.2805,5.4428.155,10.9254-.0638,16.3663-.0302.7499.2145.9925-.6085.4517-.6383-5.6561.4151-12.5417.073-18.3298,1.5638-5.562,8.6302-5.5652,10.196,0-.3421,5.7881.7114,12.6737.073,18.3298h.0002Z"/>
  <path class="k" d="M102.8319,146.3524c.9498-.3311,2.4812-.572,3.4853-.6211,8.7051-.4251,17.7454.3623,26.4875-.0102l.7493.9354c-8.7746,0-22.6368,1.0811-30.7221-.3042h0Z"/>
  <path class="s" d="M146.3296,250.3818v.3042c-28.1235.0009-56.2907.3014-84.4142.0053-.5146-.0054-1.3532.1941-1.6686-.3095h86.0828Z"/>
  <path class="ab" d="M81.5394,196.2379l-.3042.6084c-8.1996-2.8835-15.4432-6.3761-22.5093-11.5588-.5195-.5761-.5195-.8803,0-.9125,6.7066,5.0631,14.8987,9.0753,22.8135,11.863h0Z"/>
  <path class="v" d="M58.7258,184.3749v.9125c-2.9436-2.1591-10.5771-8.3963-11.863-11.5588-.1107-.2722-.5039-1.0446-.1536-1.2152,2.1322,2.7019,4.4547,5.2748,6.9896,7.611,1.5433,1.4223,3.359,2.9913,5.027,4.2505h0Z"/>
  <path class="m" d="M103.4403,147.265l30.2644-.0017.1506.6098c-2.3798-.541-5.1183-.3111-7.6015-.3039-6.9547.02-16.2224.7115-22.8135-.3042h0Z"/>
  <path class="j" d="M62.0718,97.3795c-.0592-1.0456.156-.4878.6387-.1826,2.5263,1.5971,3.4946,1.6058,6.0228,0,.4829-.3067.6981-.8618.6387.1826-2.434,2.5632-4.8691,2.5597-7.3003,0h0Z"/>
  <path class="i" d="M97.3567,132.056c-.1913-.6957-.1913-1.4055,0-2.1293.0023-1.3124-.0411-2.6435,0-3.9543.6784.4643.6229,1.2583.6299,1.9756.012,1.2239-.2681,2.934-.6299,4.108Z"/>
  <path class="d" d="M97.3567,132.056c-.0059.9545.2524,2.3415-.3042,3.0418.0013-1.6469-.2566-3.7055.3042-5.1711-.0013.709.0044,1.4203,0,2.1293Z"/>
  <path class="i" d="M97.0525,136.6187c.1702.0269.5704-.0522.6078-.0023.0866.1156.3106,2.9434-.6078,2.4358-.0628-.794.0234-1.6314,0-2.4334h0Z"/>
</svg>