<?xml version="1.0" encoding="utf-8"?>
<!-- Generator: Adobe Illustrator 28.1.0, SVG Export Plug-In . SVG Version: 6.00 Build 0)  -->
<svg version="1.1"
	 id="svg2" xmlns:dc="http://purl.org/dc/elements/1.1/" xmlns:svg="http://www.w3.org/2000/svg" xmlns:cc="http://creativecommons.org/ns#" xmlns:rdf="http://www.w3.org/1999/02/22-rdf-syntax-ns#" xmlns:inkscape="http://www.inkscape.org/namespaces/inkscape" xmlns:sodipodi="http://sodipodi.sourceforge.net/DTD/sodipodi-0.dtd" inkscape:export-xdpi="72.959999" inkscape:version="0.92.3 (2405546, 2018-03-11)"
	 xmlns="http://www.w3.org/2000/svg" xmlns:xlink="http://www.w3.org/1999/xlink" x="0px" y="0px" viewBox="0 0 25 25"
	 style="enable-background:new 0 0 25 25;" xml:space="preserve">
<style type="text/css">
	.st0{fill:#FFFFFF;}
</style>
<sodipodi:namedview  bordercolor="#666666" borderopacity="1" gridtolerance="10" guidetolerance="10" id="namedview3731" inkscape:current-layer="imagebot_2" inkscape:cx="5.6822049" inkscape:cy="12.495936" inkscape:pageopacity="0" inkscape:pageshadow="2" inkscape:window-height="706" inkscape:window-maximized="1" inkscape:window-width="1366" inkscape:window-x="-8" inkscape:window-y="-8" inkscape:zoom="15.245222" objecttolerance="10" pagecolor="#ffffff" showgrid="false">
	</sodipodi:namedview>
<g id="imagebot_2" transform="translate(3.9661017,3.5677966)">
	<g id="imagebot_5">
		<path inkscape:connector-curvature="0" class="st0" d="M0,0l17.4,18.2"/>
		<path class="st0" d="M17.4,19.8c-0.4,0-0.8-0.2-1.2-0.5L-1.2,1.1c-0.6-0.6-0.6-1.7,0-2.3c0.6-0.6,1.7-0.6,2.3,0l17.4,18.2
			c0.6,0.6,0.6,1.7,0,2.3C18.2,19.7,17.8,19.8,17.4,19.8z"/>
	</g>
	<g id="imagebot_4">
		<path inkscape:connector-curvature="0" class="st0" d="M0,18.2L17.4,0"/>
		<path class="st0" d="M0,19.8c-0.4,0-0.8-0.1-1.1-0.4c-0.6-0.6-0.7-1.6,0-2.3L16.3-1.1c0.6-0.6,1.6-0.7,2.3,0
			c0.6,0.6,0.7,1.6,0,2.3L1.2,19.3C0.8,19.7,0.4,19.8,0,19.8z"/>
	</g>
</g>
</svg>
